# This file uses centimeters as units for non-parametric coordinates.

mtllib puertavidrio4.mtl
g default
v -4.745064 -7.939375 -12.436748
v -4.261333 -7.939375 -11.650064
v -4.261333 -4.626723 -11.650064
v -4.745064 -4.626723 -12.436748
v -4.237570 -7.939375 -11.661019
v -4.237570 -4.626723 -11.661019
v -4.721300 -7.939375 -12.447701
v -4.721300 -4.626723 -12.447701
v -3.760616 -7.939375 -10.836156
v -3.276908 -7.939375 -10.049508
v -3.276908 -4.626723 -10.049508
v -3.760616 -4.626723 -10.836156
v -3.253144 -7.939375 -10.060461
v -3.253144 -4.626723 -10.060461
v -3.736858 -7.939375 -10.847109
v -3.736858 -4.626723 -10.847109
v -4.257829 -7.939375 -11.644564
v -3.771990 -7.939375 -10.854451
v -3.771990 -4.626723 -10.854451
v -4.257829 -4.626723 -11.644564
v -3.748228 -7.939375 -10.865407
v -3.748228 -4.626723 -10.865407
v -4.234069 -7.939375 -11.655515
v -4.234069 -4.626723 -11.655515
v -3.271273 -7.939375 -10.040543
v -2.785455 -7.939375 -9.250465
v -2.785455 -4.626723 -9.250465
v -3.271273 -4.626723 -10.040543
v -2.761693 -7.939375 -9.261421
v -2.761693 -4.626723 -9.261421
v -3.247515 -7.939375 -10.051497
v -3.247515 -4.626723 -10.051497
vn -0.851843 0.000000 0.523797
vn -0.851843 0.000000 0.523797
vn -0.851843 0.000000 0.523797
vn -0.851843 0.000000 0.523797
vn -0.145461 -0.515018 0.844747
vn 0.746702 -0.558990 0.360507
vn 0.746702 0.558990 0.360507
vn -0.145461 0.515018 0.844747
vn 0.746702 -0.558990 0.360507
vn 0.145461 -0.515018 -0.844747
vn 0.145461 0.515018 -0.844747
vn 0.746702 0.558990 0.360507
vn 0.145461 -0.515018 -0.844747
vn -0.746702 -0.558990 -0.360507
vn -0.746702 0.558990 -0.360507
vn 0.145461 0.515018 -0.844747
vn -0.746702 -0.558990 -0.360507
vn -0.145461 -0.515018 0.844747
vn -0.145461 0.515018 0.844747
vn -0.746702 0.558990 -0.360507
vn -0.145461 -0.515018 0.844747
vn 0.746702 -0.558990 0.360507
vn 0.746702 0.558990 0.360507
vn -0.145461 0.515018 0.844747
vn 0.746702 -0.558990 0.360507
vn 0.145461 -0.515018 -0.844747
vn 0.145461 0.515018 -0.844747
vn 0.746702 0.558990 0.360507
vn 0.145461 -0.515018 -0.844747
vn -0.746702 -0.558990 -0.360507
vn -0.746702 0.558990 -0.360507
vn 0.145461 0.515018 -0.844747
vn -0.746702 -0.558990 -0.360507
vn -0.145461 -0.515018 0.844747
vn -0.145461 0.515018 0.844747
vn -0.746702 0.558990 -0.360507
vn -0.145461 -0.515018 0.844747
vn 0.746702 -0.558990 0.360507
vn 0.746702 0.558990 0.360507
vn -0.145461 0.515018 0.844747
vn 0.746702 -0.558990 0.360507
vn 0.145461 -0.515018 -0.844747
vn 0.145461 0.515018 -0.844747
vn 0.746702 0.558990 0.360507
vn 0.145461 -0.515018 -0.844747
vn -0.746702 -0.558990 -0.360507
vn -0.746702 0.558990 -0.360507
vn 0.145461 0.515018 -0.844747
vn -0.746702 -0.558990 -0.360507
vn -0.145461 -0.515018 0.844747
vn -0.145461 0.515018 0.844747
vn -0.746702 0.558990 -0.360507
vn -0.145461 -0.515018 0.844747
vn 0.746702 -0.558990 0.360507
vn 0.746702 0.558990 0.360507
vn -0.145461 0.515018 0.844747
vn 0.746702 -0.558990 0.360507
vn 0.145461 -0.515018 -0.844747
vn 0.145461 0.515018 -0.844747
vn 0.746702 0.558990 0.360507
vn 0.145461 -0.515018 -0.844747
vn -0.746702 -0.558990 -0.360507
vn -0.746702 0.558990 -0.360507
vn 0.145461 0.515018 -0.844747
vn -0.145461 -0.515018 0.844747
vn -0.746702 -0.558990 -0.360507
vn 0.145461 -0.515018 -0.844747
vn 0.746702 -0.558990 0.360507
vn -0.145461 -0.515018 0.844747
vn -0.746702 -0.558990 -0.360507
vn 0.145461 -0.515018 -0.844747
vn 0.746702 -0.558990 0.360507
vn -0.145461 -0.515018 0.844747
vn -0.746702 -0.558990 -0.360507
vn 0.145461 -0.515018 -0.844747
vn 0.746702 -0.558990 0.360507
vn -0.145461 -0.515018 0.844747
vn -0.746702 -0.558990 -0.360507
vn 0.145461 -0.515018 -0.844747
vn 0.746702 -0.558990 0.360507
vn -0.145461 0.515018 0.844747
vn 0.746702 0.558990 0.360507
vn 0.145461 0.515018 -0.844747
vn -0.746702 0.558990 -0.360507
vn -0.145461 0.515018 0.844747
vn 0.746702 0.558990 0.360507
vn 0.145461 0.515018 -0.844747
vn -0.746702 0.558990 -0.360507
vn -0.145461 0.515018 0.844747
vn 0.746702 0.558990 0.360507
vn 0.145461 0.515018 -0.844747
vn -0.746702 0.558990 -0.360507
vn -0.145461 0.515018 0.844747
vn 0.746702 0.558990 0.360507
vn 0.145461 0.515018 -0.844747
vn -0.746702 0.558990 -0.360507
s off
g glass_door01_obj4:Object004 pasted__pasted__group2 pasted__group4 group5
usemtl glass_door01_obj4:Rail_glass
f 1//1 2//2 3//3 4//4
f 2//5 5//6 6//7 3//8
f 5//9 7//10 8//11 6//12
f 7//13 1//14 4//15 8//16
f 9//17 10//18 11//19 12//20
f 10//21 13//22 14//23 11//24
f 13//25 15//26 16//27 14//28
f 15//29 9//30 12//31 16//32
f 17//33 18//34 19//35 20//36
f 18//37 21//38 22//39 19//40
f 21//41 23//42 24//43 22//44
f 23//45 17//46 20//47 24//48
f 25//49 26//50 27//51 28//52
f 26//53 29//54 30//55 27//56
f 29//57 31//58 32//59 30//60
f 31//61 25//62 28//63 32//64
f 2//65 1//66 7//67 5//68
f 10//69 9//70 15//71 13//72
f 18//73 17//74 23//75 21//76
f 26//77 25//78 31//79 29//80
f 3//81 6//82 8//83 4//84
f 11//85 14//86 16//87 12//88
f 19//89 22//90 24//91 20//92
f 27//93 30//94 32//95 28//96
