# This file uses centimeters as units for non-parametric coordinates.

mtllib table.mtl
g default
v -10.213109 -7.066276 -23.876823
v -9.356133 -7.066276 -23.876823
v -9.356133 -7.066276 -26.565057
v -10.213109 -7.066276 -26.565057
v -10.241849 -7.951883 -23.848088
v -9.327393 -7.951883 -23.848088
v -9.327393 -7.095016 -23.848088
v -10.241849 -7.095016 -23.848088
v -9.327393 -7.951883 -26.593796
v -10.241849 -7.951883 -26.593796
v -10.241849 -7.095016 -26.593796
v -9.327393 -7.095016 -26.593796
v -9.327393 -7.951883 -26.502935
v -10.241849 -7.951883 -26.502935
v -9.327393 -7.086598 -26.573475
v -9.327393 -7.157137 -26.502935
v -9.327393 -7.586071 -26.502935
v -9.327393 -7.772363 -26.502935
v -9.327393 -7.086598 -23.868405
v -9.327393 -7.157137 -23.938949
v -9.327393 -7.951883 -23.938949
v -9.327393 -7.772363 -23.938949
v -9.327393 -7.586071 -23.938949
v -10.241849 -7.951883 -23.938949
v -10.241849 -7.086598 -23.868405
v -10.241849 -7.157137 -23.938949
v -10.241849 -7.586071 -23.938949
v -10.241849 -7.772363 -23.938949
v -10.241849 -7.086598 -26.573475
v -10.241849 -7.157137 -26.502935
v -10.241849 -7.772363 -26.502935
v -10.241849 -7.586071 -26.502935
vt 0.031400 0.010500
vt 0.968600 0.010500
vt 0.968600 0.989500
vt 0.031400 0.989500
vt 0.000000 0.000000
vt 1.000000 0.000000
vt 1.000000 0.967500
vt 0.000000 0.967500
vt 0.000000 0.000000
vt 1.000000 0.000000
vt 1.000000 0.967500
vt 0.000000 0.967500
vt 1.000000 1.000000
vt 0.000000 1.000000
vt 0.000000 1.000000
vt 1.000000 1.000000
vt 1.000000 0.000000
vt 1.000000 0.967500
vt 1.000000 1.000000
vt 1.000000 1.000000
vt 1.000000 0.750000
vt 1.000000 0.500000
vt 1.000000 0.000000
vt 1.000000 1.000000
vt 0.000000 1.000000
vt 0.000000 1.000000
vt 1.000000 1.000000
vt 0.000000 1.000000
vt 0.000000 0.967500
vt 0.000000 0.000000
vt 0.000000 0.000000
vt 0.000000 0.500000
vt 0.000000 0.750000
vt 0.000000 1.000000
vt 0.000000 0.000000
vt 1.000000 0.000000
vt 1.000000 0.000000
vt 0.000000 0.000000
vt 1.000000 0.000000
vt 1.000000 0.967500
vt 1.000000 1.000000
vt 1.000000 1.000000
vt 1.000000 0.750000
vt 1.000000 0.500000
vt 1.000000 0.000000
vt 1.000000 1.000000
vt 0.000000 1.000000
vt 0.000000 1.000000
vt 1.000000 1.000000
vt 0.000000 1.000000
vt 0.000000 0.967500
vt 0.000000 0.000000
vt 0.000000 0.000000
vt 0.000000 0.500000
vt 0.000000 0.750000
vt 0.000000 1.000000
vt 1.000000 0.500000
vt 1.000000 0.750000
vt 0.000000 0.750000
vt 0.000000 0.500000
vt 0.000000 0.967500
vt 1.000000 0.967500
vt 0.000000 0.000000
vt 1.000000 0.000000
vt 1.000000 0.000000
vt 1.000000 0.500000
vt 1.000000 0.967500
vt 0.000000 0.000000
vt 0.000000 1.000000
vt 1.000000 0.000000
vt 0.000000 0.000000
vt 0.000000 0.967500
vt 1.000000 0.967500
vt 0.000000 0.000000
vt 1.000000 0.000000
vt 0.000000 0.967500
vt 1.000000 0.967500
vt 0.000000 0.967500
vt 1.000000 0.967500
vt 1.000000 0.000000
vt 1.000000 1.000000
vt 1.000000 0.967500
vt 0.000000 0.750000
vt 1.000000 0.967500
vt 1.000000 1.000000
vt 1.000000 0.967500
vt 1.000000 0.967500
vt 1.046900 1.008500
vt 1.000000 1.000000
vt 0.000000 0.967500
vt 0.000000 1.000000
vt -0.046900 1.008500
vt 0.000000 0.967500
vt 0.000000 1.000000
vt -0.046900 1.008500
vt 1.000000 0.967500
vt 1.046900 1.008500
vt 1.000000 1.000000
vt 0.031400 1.008800
vt 0.968600 1.008800
vt 0.895000 0.992600
vt 0.895000 0.007400
vt 0.031400 1.008800
vt 0.000000 0.967500
vt 1.000000 0.967500
vt 0.968600 1.008800
vt 0.105000 0.007400
vt 0.105000 0.992600
vn -0.231404 0.920516 0.314805
vn 0.231404 0.920516 0.314805
vn 0.231404 0.920516 -0.314805
vn -0.231404 0.920516 -0.314805
vn -0.577350 -0.577350 0.577350
vn 0.577350 -0.577350 0.577350
vn 0.637204 0.347702 0.687804
vn -0.637204 0.347702 0.687804
vn 0.577350 -0.577350 -0.577350
vn -0.577350 -0.577350 -0.577350
vn -0.637204 0.347702 -0.687804
vn 0.637204 0.347702 -0.687804
vn -0.577350 -0.577350 -0.577350
vn 0.577350 -0.577350 -0.577350
vn 0.577350 -0.577350 0.577350
vn -0.577350 -0.577350 0.577350
vn 0.577350 -0.577350 -0.577350
vn 0.637204 0.347702 -0.687804
vn 0.847001 0.515901 -0.128200
vn 0.904534 -0.301511 0.301511
vn 0.904534 0.301511 0.301511
vn 0.904534 -0.301511 0.301511
vn 0.577350 -0.577350 0.577350
vn 0.847001 0.515901 -0.128200
vn 0.847001 0.515901 0.128200
vn 0.904534 -0.301511 -0.301511
vn 0.904534 -0.301511 0.301511
vn 0.847001 0.515901 0.128200
vn 0.637204 0.347702 0.687804
vn 0.577350 -0.577350 0.577350
vn 0.577350 -0.577350 -0.577350
vn 0.904534 -0.301511 -0.301511
vn 0.904534 0.301511 -0.301511
vn 0.904534 -0.301511 -0.301511
vn 0.577350 -0.577350 0.577350
vn -0.577350 -0.577350 0.577350
vn -0.577350 -0.577350 -0.577350
vn 0.577350 -0.577350 -0.577350
vn -0.577350 -0.577350 0.577350
vn -0.637204 0.347702 0.687804
vn -0.847001 0.515901 0.128200
vn -0.904534 -0.301511 -0.301511
vn -0.904534 0.301511 -0.301511
vn -0.904534 -0.301511 -0.301511
vn -0.577350 -0.577350 -0.577350
vn -0.847001 0.515901 0.128200
vn -0.847001 0.515901 -0.128200
vn -0.904534 -0.301511 0.301511
vn -0.904534 -0.301511 -0.301511
vn -0.847001 0.515901 -0.128200
vn -0.637204 0.347702 -0.687804
vn -0.577350 -0.577350 -0.577350
vn -0.577350 -0.577350 0.577350
vn -0.904534 -0.301511 0.301511
vn -0.904534 0.301511 0.301511
vn -0.904534 -0.301511 0.301511
vn -0.904534 -0.301511 -0.301511
vn -0.904534 0.301511 -0.301511
vn -0.904534 0.301511 0.301511
vn -0.904534 -0.301511 0.301511
vn 0.904534 -0.301511 0.301511
vn 0.904534 0.301511 0.301511
vn 0.904534 0.301511 -0.301511
vn 0.904534 -0.301511 -0.301511
vn 0.904534 -0.301511 0.301511
vn 0.904534 -0.301511 -0.301511
vn -0.904534 -0.301511 -0.301511
vn -0.904534 -0.301511 0.301511
vn -0.577350 -0.577350 -0.577350
vn -0.904534 -0.301511 -0.301511
vn 0.904534 -0.301511 -0.301511
vn 0.577350 -0.577350 -0.577350
vn 0.577350 -0.577350 0.577350
vn 0.904534 -0.301511 0.301511
vn -0.904534 -0.301511 0.301511
vn -0.577350 -0.577350 0.577350
vn 0.904534 0.301511 -0.301511
vn 0.904534 0.301511 0.301511
vn -0.904534 0.301511 0.301511
vn -0.904534 0.301511 -0.301511
vn -0.904534 -0.301511 -0.301511
vn -0.904534 -0.301511 0.301511
vn 0.904534 -0.301511 0.301511
vn 0.904534 -0.301511 -0.301511
vn 0.904534 0.301511 -0.301511
vn -0.904534 0.301511 -0.301511
vn -0.904534 -0.301511 -0.301511
vn 0.904534 -0.301511 -0.301511
vn -0.904534 0.301511 0.301511
vn 0.904534 0.301511 0.301511
vn 0.904534 -0.301511 0.301511
vn -0.904534 -0.301511 0.301511
vn -0.637204 0.347702 0.687804
vn -0.231404 0.920516 0.314805
vn -0.847001 0.515901 0.128200
vn 0.637204 0.347702 0.687804
vn 0.847001 0.515901 0.128200
vn 0.231404 0.920516 0.314805
vn -0.637204 0.347702 -0.687804
vn -0.847001 0.515901 -0.128200
vn -0.231404 0.920516 -0.314805
vn 0.637204 0.347702 -0.687804
vn 0.231404 0.920516 -0.314805
vn 0.847001 0.515901 -0.128200
vn -0.231404 0.920516 0.314805
vn -0.637204 0.347702 0.687804
vn 0.637204 0.347702 0.687804
vn 0.231404 0.920516 0.314805
vn 0.847001 0.515901 -0.128200
vn 0.231404 0.920516 -0.314805
vn 0.231404 0.920516 0.314805
vn 0.847001 0.515901 0.128200
vn 0.231404 0.920516 -0.314805
vn 0.637204 0.347702 -0.687804
vn -0.637204 0.347702 -0.687804
vn -0.231404 0.920516 -0.314805
vn -0.847001 0.515901 0.128200
vn -0.231404 0.920516 0.314805
vn -0.231404 0.920516 -0.314805
vn -0.847001 0.515901 -0.128200
s off
g table:Table
usemtl lambert42SG
f 1/1/1 2/2/2 3/3/3 4/4/4
f 5/5/5 6/6/6 7/7/7 8/8/8
f 9/9/9 10/10/10 11/11/11 12/12/12
f 10/13/13 9/14/14 13/15/15 14/16/16
f 9/17/17 12/18/18 15/19/19 16/20/20 17/21/21 18/22/22 13/23/23
f 15/24/24 19/25/25 20/26/26 16/27/27
f 19/28/28 7/29/29 6/30/30 21/31/31 22/32/32 23/33/33 20/34/34
f 6/35/35 5/36/36 24/37/37 21/38/38
f 5/39/39 8/40/40 25/41/41 26/42/42 27/43/43 28/44/44 24/45/45
f 25/46/46 29/47/47 30/48/48 26/49/49
f 29/50/50 11/51/51 10/52/52 14/53/53 31/54/54 32/55/55 30/56/56
f 28/57/57 27/58/58 32/59/59 31/60/60
f 18/22/61 17/21/62 23/33/63 22/32/64
f 18/61/65 22/62/66 28/63/67 31/64/68
f 24/65/69 28/66/70 22/67/71 21/68/72
f 13/69/73 18/22/74 31/70/75 14/71/76
f 23/72/77 17/73/78 32/74/79 27/75/80
f 26/76/81 30/77/82 16/78/83 20/79/84
f 23/33/85 27/80/86 26/81/87 20/82/88
f 32/83/89 17/84/90 16/85/91 30/86/92
f 8/87/93 1/88/94 25/89/95
f 7/90/96 19/91/97 2/92/98
f 11/93/99 29/94/100 4/95/101
f 12/96/102 3/97/103 15/98/104
f 1/99/105 8/8/106 7/7/107 2/100/108
f 15/101/109 3/3/110 2/2/111 19/102/112
f 3/103/113 12/104/114 11/105/115 4/106/116
f 25/107/117 1/1/118 4/4/119 29/108/120
