# This file uses centimeters as units for non-parametric coordinates.

mtllib puertavidrio9.mtl
g default
v -7.706482 -7.955303 -31.319959
v -8.933792 -7.955303 -31.355123
v -8.933792 -5.188847 -31.355123
v -7.706482 -5.188847 -31.319959
v -8.919067 -7.955303 -31.329757
v -8.919067 -5.188847 -31.329757
v -7.691761 -7.955303 -31.294593
v -7.691761 -5.188847 -31.294593
v -10.203592 -7.955303 -31.391303
v -11.430844 -7.955303 -31.426465
v -11.430844 -5.188847 -31.426465
v -10.203592 -5.188847 -31.391303
v -11.416122 -7.955303 -31.401099
v -11.416122 -5.188847 -31.401099
v -10.188869 -7.955303 -31.365941
v -10.188869 -5.188847 -31.365941
v -8.942382 -7.955303 -31.355270
v -10.175039 -7.955303 -31.390586
v -10.175039 -5.188847 -31.390586
v -8.942382 -5.188847 -31.355270
v -10.160314 -7.955303 -31.365220
v -10.160314 -5.188847 -31.365220
v -8.927663 -7.955303 -31.329908
v -8.927663 -5.188847 -31.329908
v -11.444839 -7.955303 -31.426766
v -12.677443 -7.955303 -31.462081
v -12.677443 -5.188847 -31.462081
v -11.444839 -5.188847 -31.426766
v -12.662717 -7.955303 -31.436715
v -12.662717 -5.188847 -31.436715
v -11.430116 -7.955303 -31.401404
v -11.430116 -5.188847 -31.401404
vn 0.028639 0.000000 -0.999590
vn 0.028639 0.000000 -0.999590
vn 0.028639 0.000000 -0.999590
vn 0.028639 0.000000 -0.999590
vn -0.588655 -0.759901 -0.275747
vn -0.449814 -0.547315 0.705771
vn -0.449814 0.547315 0.705771
vn -0.588655 0.759901 -0.275747
vn -0.449814 -0.547315 0.705771
vn 0.588655 -0.759901 0.275747
vn 0.588655 0.759901 0.275747
vn -0.449814 0.547315 0.705771
vn 0.588655 -0.759901 0.275747
vn 0.449814 -0.547315 -0.705771
vn 0.449814 0.547315 -0.705771
vn 0.588655 0.759901 0.275747
vn 0.449814 -0.547315 -0.705771
vn -0.588655 -0.759901 -0.275747
vn -0.588655 0.759901 -0.275747
vn 0.449814 0.547315 -0.705771
vn -0.588655 -0.759901 -0.275747
vn -0.449814 -0.547315 0.705771
vn -0.449814 0.547315 0.705771
vn -0.588655 0.759901 -0.275747
vn -0.449814 -0.547315 0.705771
vn 0.588655 -0.759901 0.275747
vn 0.588655 0.759901 0.275747
vn -0.449814 0.547315 0.705771
vn 0.588655 -0.759901 0.275747
vn 0.449814 -0.547315 -0.705771
vn 0.449814 0.547315 -0.705771
vn 0.588655 0.759901 0.275747
vn 0.449814 -0.547315 -0.705771
vn -0.588655 -0.759901 -0.275747
vn -0.588655 0.759901 -0.275747
vn 0.449814 0.547315 -0.705771
vn -0.588655 -0.759901 -0.275747
vn -0.449814 -0.547315 0.705771
vn -0.449814 0.547315 0.705771
vn -0.588655 0.759901 -0.275747
vn -0.449814 -0.547315 0.705771
vn 0.588655 -0.759901 0.275747
vn 0.588655 0.759901 0.275747
vn -0.449814 0.547315 0.705771
vn 0.588655 -0.759901 0.275747
vn 0.449814 -0.547315 -0.705771
vn 0.449814 0.547315 -0.705771
vn 0.588655 0.759901 0.275747
vn 0.449814 -0.547315 -0.705771
vn -0.588655 -0.759901 -0.275747
vn -0.588655 0.759901 -0.275747
vn 0.449814 0.547315 -0.705771
vn -0.588655 -0.759901 -0.275747
vn -0.449814 -0.547315 0.705771
vn -0.449814 0.547315 0.705771
vn -0.588655 0.759901 -0.275747
vn -0.449814 -0.547315 0.705771
vn 0.588655 -0.759901 0.275747
vn 0.588655 0.759901 0.275747
vn -0.449814 0.547315 0.705771
vn 0.588655 -0.759901 0.275747
vn 0.449814 -0.547315 -0.705771
vn 0.449814 0.547315 -0.705771
vn 0.588655 0.759901 0.275747
vn -0.588655 -0.759901 -0.275747
vn 0.449814 -0.547315 -0.705771
vn 0.588655 -0.759901 0.275747
vn -0.449814 -0.547315 0.705771
vn -0.588655 -0.759901 -0.275747
vn 0.449814 -0.547315 -0.705771
vn 0.588655 -0.759901 0.275747
vn -0.449814 -0.547315 0.705771
vn -0.588655 -0.759901 -0.275747
vn 0.449814 -0.547315 -0.705771
vn 0.588655 -0.759901 0.275747
vn -0.449814 -0.547315 0.705771
vn -0.588655 -0.759901 -0.275747
vn 0.449814 -0.547315 -0.705771
vn 0.588655 -0.759901 0.275747
vn -0.449814 -0.547315 0.705771
vn -0.588655 0.759901 -0.275747
vn -0.449814 0.547315 0.705771
vn 0.588655 0.759901 0.275747
vn 0.449814 0.547315 -0.705771
vn -0.588655 0.759901 -0.275747
vn -0.449814 0.547315 0.705771
vn 0.588655 0.759901 0.275747
vn 0.449814 0.547315 -0.705771
vn -0.588655 0.759901 -0.275747
vn -0.449814 0.547315 0.705771
vn 0.588655 0.759901 0.275747
vn 0.449814 0.547315 -0.705771
vn -0.588655 0.759901 -0.275747
vn -0.449814 0.547315 0.705771
vn 0.588655 0.759901 0.275747
vn 0.449814 0.547315 -0.705771
s off
g glass_door01_obj9:Object004 pasted__pasted__pasted__pasted__pasted__group2 pasted__pasted__pasted__pasted__group12 pasted__pasted__pasted__group13 pasted__pasted__group14 pasted__group15 group16
usemtl glass_door01_obj9:Rail_glass
f 1//1 2//2 3//3 4//4
f 2//5 5//6 6//7 3//8
f 5//9 7//10 8//11 6//12
f 7//13 1//14 4//15 8//16
f 9//17 10//18 11//19 12//20
f 10//21 13//22 14//23 11//24
f 13//25 15//26 16//27 14//28
f 15//29 9//30 12//31 16//32
f 17//33 18//34 19//35 20//36
f 18//37 21//38 22//39 19//40
f 21//41 23//42 24//43 22//44
f 23//45 17//46 20//47 24//48
f 25//49 26//50 27//51 28//52
f 26//53 29//54 30//55 27//56
f 29//57 31//58 32//59 30//60
f 31//61 25//62 28//63 32//64
f 2//65 1//66 7//67 5//68
f 10//69 9//70 15//71 13//72
f 18//73 17//74 23//75 21//76
f 26//77 25//78 31//79 29//80
f 3//81 6//82 8//83 4//84
f 11//85 14//86 16//87 12//88
f 19//89 22//90 24//91 20//92
f 27//93 30//94 32//95 28//96
