# This file uses centimeters as units for non-parametric coordinates.

mtllib puertavidrio8.mtl
g default
v -12.877507 -7.955303 -31.362600
v -13.535556 -7.955303 -30.756015
v -13.535556 -5.188847 -30.756015
v -12.877507 -5.188847 -31.362600
v -13.519181 -7.955303 -30.743315
v -13.519181 -5.188847 -30.743315
v -12.861134 -7.955303 -31.349898
v -12.861134 -5.188847 -31.349898
v -14.216319 -7.955303 -30.128268
v -14.874337 -7.955303 -29.521712
v -14.874337 -5.188847 -29.521712
v -14.216319 -5.188847 -30.128268
v -14.857964 -7.955303 -29.509009
v -14.857964 -5.188847 -29.509009
v -14.199947 -7.955303 -30.115570
v -14.199947 -5.188847 -30.115570
v -13.540128 -7.955303 -30.751690
v -14.201044 -7.955303 -30.142461
v -14.201044 -5.188847 -30.142461
v -13.540128 -5.188847 -30.751690
v -14.184669 -7.955303 -30.129761
v -14.184669 -5.188847 -30.129761
v -13.523758 -7.955303 -30.738990
v -13.523758 -5.188847 -30.738990
v -14.881807 -7.955303 -29.514714
v -15.542695 -7.955303 -28.905512
v -15.542695 -5.188847 -28.905512
v -14.881807 -5.188847 -29.514714
v -15.526320 -7.955303 -28.892812
v -15.526320 -5.188847 -28.892812
v -14.865435 -7.955303 -29.502016
v -14.865435 -5.188847 -29.502016
vn -0.677770 0.000000 -0.735274
vn -0.677770 0.000000 -0.735274
vn -0.677770 0.000000 -0.735274
vn -0.677770 0.000000 -0.735274
vn -0.802031 -0.592956 0.071766
vn 0.007694 -0.529057 0.848551
vn 0.007694 0.529057 0.848551
vn -0.802031 0.592956 0.071766
vn 0.007694 -0.529057 0.848551
vn 0.802031 -0.592956 -0.071766
vn 0.802031 0.592956 -0.071766
vn 0.007694 0.529057 0.848551
vn 0.802031 -0.592956 -0.071766
vn -0.007694 -0.529057 -0.848551
vn -0.007694 0.529057 -0.848551
vn 0.802031 0.592956 -0.071766
vn -0.007694 -0.529057 -0.848551
vn -0.802031 -0.592956 0.071766
vn -0.802031 0.592956 0.071766
vn -0.007694 0.529057 -0.848551
vn -0.802031 -0.592956 0.071766
vn 0.007694 -0.529057 0.848551
vn 0.007694 0.529057 0.848551
vn -0.802031 0.592956 0.071766
vn 0.007694 -0.529057 0.848551
vn 0.802031 -0.592956 -0.071766
vn 0.802031 0.592956 -0.071766
vn 0.007694 0.529057 0.848551
vn 0.802031 -0.592956 -0.071766
vn -0.007694 -0.529057 -0.848551
vn -0.007694 0.529057 -0.848551
vn 0.802031 0.592956 -0.071766
vn -0.007694 -0.529057 -0.848551
vn -0.802031 -0.592956 0.071766
vn -0.802031 0.592956 0.071766
vn -0.007694 0.529057 -0.848551
vn -0.802031 -0.592956 0.071766
vn 0.007694 -0.529057 0.848551
vn 0.007694 0.529057 0.848551
vn -0.802031 0.592956 0.071766
vn 0.007694 -0.529057 0.848551
vn 0.802031 -0.592956 -0.071766
vn 0.802031 0.592956 -0.071766
vn 0.007694 0.529057 0.848551
vn 0.802031 -0.592956 -0.071766
vn -0.007694 -0.529057 -0.848551
vn -0.007694 0.529057 -0.848551
vn 0.802031 0.592956 -0.071766
vn -0.007694 -0.529057 -0.848551
vn -0.802031 -0.592956 0.071766
vn -0.802031 0.592956 0.071766
vn -0.007694 0.529057 -0.848551
vn -0.802031 -0.592956 0.071766
vn 0.007694 -0.529057 0.848551
vn 0.007694 0.529057 0.848551
vn -0.802031 0.592956 0.071766
vn 0.007694 -0.529057 0.848551
vn 0.802031 -0.592956 -0.071766
vn 0.802031 0.592956 -0.071766
vn 0.007694 0.529057 0.848551
vn 0.802031 -0.592956 -0.071766
vn -0.007694 -0.529057 -0.848551
vn -0.007694 0.529057 -0.848551
vn 0.802031 0.592956 -0.071766
vn -0.802031 -0.592956 0.071766
vn -0.007694 -0.529057 -0.848551
vn 0.802031 -0.592956 -0.071766
vn 0.007694 -0.529057 0.848551
vn -0.802031 -0.592956 0.071766
vn -0.007694 -0.529057 -0.848551
vn 0.802031 -0.592956 -0.071766
vn 0.007694 -0.529057 0.848551
vn -0.802031 -0.592956 0.071766
vn -0.007694 -0.529057 -0.848551
vn 0.802031 -0.592956 -0.071766
vn 0.007694 -0.529057 0.848551
vn -0.802031 -0.592956 0.071766
vn -0.007694 -0.529057 -0.848551
vn 0.802031 -0.592956 -0.071766
vn 0.007694 -0.529057 0.848551
vn -0.802031 0.592956 0.071766
vn 0.007694 0.529057 0.848551
vn 0.802031 0.592956 -0.071766
vn -0.007694 0.529057 -0.848551
vn -0.802031 0.592956 0.071766
vn 0.007694 0.529057 0.848551
vn 0.802031 0.592956 -0.071766
vn -0.007694 0.529057 -0.848551
vn -0.802031 0.592956 0.071766
vn 0.007694 0.529057 0.848551
vn 0.802031 0.592956 -0.071766
vn -0.007694 0.529057 -0.848551
vn -0.802031 0.592956 0.071766
vn 0.007694 0.529057 0.848551
vn 0.802031 0.592956 -0.071766
vn -0.007694 0.529057 -0.848551
s off
g glass_door01_obj8:Object004 pasted__pasted__pasted__pasted__group2 pasted__pasted__pasted__group12 pasted__pasted__group13 pasted__group14 group15
usemtl glass_door01_obj8:Rail_glass
f 1//1 2//2 3//3 4//4
f 2//5 5//6 6//7 3//8
f 5//9 7//10 8//11 6//12
f 7//13 1//14 4//15 8//16
f 9//17 10//18 11//19 12//20
f 10//21 13//22 14//23 11//24
f 13//25 15//26 16//27 14//28
f 15//29 9//30 12//31 16//32
f 17//33 18//34 19//35 20//36
f 18//37 21//38 22//39 19//40
f 21//41 23//42 24//43 22//44
f 23//45 17//46 20//47 24//48
f 25//49 26//50 27//51 28//52
f 26//53 29//54 30//55 27//56
f 29//57 31//58 32//59 30//60
f 31//61 25//62 28//63 32//64
f 2//65 1//66 7//67 5//68
f 10//69 9//70 15//71 13//72
f 18//73 17//74 23//75 21//76
f 26//77 25//78 31//79 29//80
f 3//81 6//82 8//83 4//84
f 11//85 14//86 16//87 12//88
f 19//89 22//90 24//91 20//92
f 27//93 30//94 32//95 28//96
