# This file uses centimeters as units for non-parametric coordinates.

mtllib puertavidrio6.mtl
g default
v -16.597205 -8.034364 -24.964829
v -16.132452 -8.034364 -24.014799
v -16.132452 -5.407549 -24.014799
v -16.597205 -5.407549 -24.964829
v -16.112765 -8.034364 -24.021895
v -16.112765 -5.407549 -24.021895
v -16.577517 -8.034364 -24.971921
v -16.577517 -5.407549 -24.971921
v -15.651405 -8.034364 -23.031844
v -15.186674 -8.034364 -22.081860
v -15.186674 -5.407549 -22.081860
v -15.651405 -5.407549 -23.031844
v -15.166986 -8.034364 -22.088952
v -15.166986 -5.407549 -22.088952
v -15.631722 -8.034364 -23.038939
v -15.631722 -5.407549 -23.038939
v -16.129098 -8.034364 -24.008133
v -15.662320 -8.034364 -23.053964
v -15.662320 -5.407549 -23.053964
v -16.129098 -5.407549 -24.008133
v -15.642633 -8.034364 -23.061059
v -15.642633 -5.407549 -23.061059
v -16.109413 -8.034364 -24.015224
v -16.109413 -5.407549 -24.015224
v -15.181273 -8.034364 -22.071009
v -14.714515 -8.034364 -21.116881
v -14.714515 -5.407549 -21.116881
v -15.181273 -5.407549 -22.071009
v -14.694829 -8.034364 -21.123977
v -14.694829 -5.407549 -21.123977
v -15.161590 -8.034364 -22.078103
v -15.161590 -5.407549 -22.078103
vn -0.898275 0.000000 0.439434
vn -0.898275 0.000000 0.439434
vn -0.898275 0.000000 0.439434
vn -0.898275 0.000000 0.439434
vn -0.327533 -0.595428 0.733613
vn 0.726279 -0.637100 0.258115
vn 0.726279 0.637100 0.258115
vn -0.327533 0.595428 0.733613
vn 0.726279 -0.637100 0.258115
vn 0.327533 -0.595428 -0.733613
vn 0.327533 0.595428 -0.733613
vn 0.726279 0.637100 0.258115
vn 0.327533 -0.595428 -0.733613
vn -0.726279 -0.637100 -0.258115
vn -0.726279 0.637100 -0.258115
vn 0.327533 0.595428 -0.733613
vn -0.726279 -0.637100 -0.258115
vn -0.327533 -0.595428 0.733613
vn -0.327533 0.595428 0.733613
vn -0.726279 0.637100 -0.258115
vn -0.327533 -0.595428 0.733613
vn 0.726279 -0.637100 0.258115
vn 0.726279 0.637100 0.258115
vn -0.327533 0.595428 0.733613
vn 0.726279 -0.637100 0.258115
vn 0.327533 -0.595428 -0.733613
vn 0.327533 0.595428 -0.733613
vn 0.726279 0.637100 0.258115
vn 0.327533 -0.595428 -0.733613
vn -0.726279 -0.637100 -0.258115
vn -0.726279 0.637100 -0.258115
vn 0.327533 0.595428 -0.733613
vn -0.726279 -0.637100 -0.258115
vn -0.327533 -0.595428 0.733613
vn -0.327533 0.595428 0.733613
vn -0.726279 0.637100 -0.258115
vn -0.327533 -0.595428 0.733613
vn 0.726279 -0.637100 0.258115
vn 0.726279 0.637100 0.258115
vn -0.327533 0.595428 0.733613
vn 0.726279 -0.637100 0.258115
vn 0.327533 -0.595428 -0.733613
vn 0.327533 0.595428 -0.733613
vn 0.726279 0.637100 0.258115
vn 0.327533 -0.595428 -0.733613
vn -0.726279 -0.637100 -0.258115
vn -0.726279 0.637100 -0.258115
vn 0.327533 0.595428 -0.733613
vn -0.726279 -0.637100 -0.258115
vn -0.327533 -0.595428 0.733613
vn -0.327533 0.595428 0.733613
vn -0.726279 0.637100 -0.258115
vn -0.327533 -0.595428 0.733613
vn 0.726279 -0.637100 0.258115
vn 0.726279 0.637100 0.258115
vn -0.327533 0.595428 0.733613
vn 0.726279 -0.637100 0.258115
vn 0.327533 -0.595428 -0.733613
vn 0.327533 0.595428 -0.733613
vn 0.726279 0.637100 0.258115
vn 0.327533 -0.595428 -0.733613
vn -0.726279 -0.637100 -0.258115
vn -0.726279 0.637100 -0.258115
vn 0.327533 0.595428 -0.733613
vn -0.327533 -0.595428 0.733613
vn -0.726279 -0.637100 -0.258115
vn 0.327533 -0.595428 -0.733613
vn 0.726279 -0.637100 0.258115
vn -0.327533 -0.595428 0.733613
vn -0.726279 -0.637100 -0.258115
vn 0.327533 -0.595428 -0.733613
vn 0.726279 -0.637100 0.258115
vn -0.327533 -0.595428 0.733613
vn -0.726279 -0.637100 -0.258115
vn 0.327533 -0.595428 -0.733613
vn 0.726279 -0.637100 0.258115
vn -0.327533 -0.595428 0.733613
vn -0.726279 -0.637100 -0.258115
vn 0.327533 -0.595428 -0.733613
vn 0.726279 -0.637100 0.258115
vn -0.327533 0.595428 0.733613
vn 0.726279 0.637100 0.258115
vn 0.327533 0.595428 -0.733613
vn -0.726279 0.637100 -0.258115
vn -0.327533 0.595428 0.733613
vn 0.726279 0.637100 0.258115
vn 0.327533 0.595428 -0.733613
vn -0.726279 0.637100 -0.258115
vn -0.327533 0.595428 0.733613
vn 0.726279 0.637100 0.258115
vn 0.327533 0.595428 -0.733613
vn -0.726279 0.637100 -0.258115
vn -0.327533 0.595428 0.733613
vn 0.726279 0.637100 0.258115
vn 0.327533 0.595428 -0.733613
vn -0.726279 0.637100 -0.258115
s off
g glass_door01_obj6:Object004 pasted__pasted__group2 pasted__group12 group13
usemtl glass_door01_obj6:Rail_glass
f 1//1 2//2 3//3 4//4
f 2//5 5//6 6//7 3//8
f 5//9 7//10 8//11 6//12
f 7//13 1//14 4//15 8//16
f 9//17 10//18 11//19 12//20
f 10//21 13//22 14//23 11//24
f 13//25 15//26 16//27 14//28
f 15//29 9//30 12//31 16//32
f 17//33 18//34 19//35 20//36
f 18//37 21//38 22//39 19//40
f 21//41 23//42 24//43 22//44
f 23//45 17//46 20//47 24//48
f 25//49 26//50 27//51 28//52
f 26//53 29//54 30//55 27//56
f 29//57 31//58 32//59 30//60
f 31//61 25//62 28//63 32//64
f 2//65 1//66 7//67 5//68
f 10//69 9//70 15//71 13//72
f 18//73 17//74 23//75 21//76
f 26//77 25//78 31//79 29//80
f 3//81 6//82 8//83 4//84
f 11//85 14//86 16//87 12//88
f 19//89 22//90 24//91 20//92
f 27//93 30//94 32//95 28//96
