# This file uses centimeters as units for non-parametric coordinates.

mtllib mezclador.mtl
g default
v -10.176934 -7.069116 -24.960319
v -10.055491 -6.679147 -24.947783
v -10.175775 -7.069488 -24.959970
v -10.054774 -6.679377 -24.947567
v -10.174836 -7.069803 -24.959181
v -10.054194 -6.679572 -24.947080
v -10.174260 -7.070015 -24.958074
v -10.053837 -6.679703 -24.946395
v -10.174134 -7.070091 -24.956816
v -10.053759 -6.679749 -24.945617
v -10.174478 -7.070019 -24.955600
v -10.053972 -6.679705 -24.944865
v -10.175239 -7.069810 -24.954610
v -10.054443 -6.679576 -24.944253
v -10.176302 -7.069497 -24.953997
v -10.055100 -6.679382 -24.943874
v -10.177504 -7.069126 -24.953854
v -10.055843 -6.679153 -24.943786
v -10.178663 -7.068755 -24.954204
v -10.056560 -6.678923 -24.944002
v -10.179602 -7.068439 -24.954992
v -10.057140 -6.678728 -24.944489
v -10.180178 -7.068228 -24.956099
v -10.057497 -6.678597 -24.945174
v -10.180304 -7.068152 -24.957357
v -10.057575 -6.678551 -24.945952
v -10.179960 -7.068224 -24.958573
v -10.057362 -6.678595 -24.946704
v -10.179199 -7.068432 -24.959564
v -10.056891 -6.678724 -24.947316
v -10.178136 -7.068746 -24.960177
v -10.056234 -6.678918 -24.947695
v -10.052087 -6.680058 -24.952932
v -10.054961 -6.679138 -24.953799
v -10.049759 -6.680841 -24.950977
v -10.048330 -6.681366 -24.948232
v -10.048019 -6.681553 -24.945114
v -10.048871 -6.681375 -24.942098
v -10.050758 -6.680858 -24.939643
v -10.053393 -6.680081 -24.938123
v -10.056373 -6.679162 -24.937770
v -10.059247 -6.678241 -24.938637
v -10.061575 -6.677459 -24.940592
v -10.063004 -6.676934 -24.943337
v -10.063316 -6.676746 -24.946455
v -10.062463 -6.676925 -24.949471
v -10.060576 -6.677442 -24.951926
v -10.057941 -6.678219 -24.953445
v -10.176512 -7.069109 -24.965101
v -10.173639 -7.070030 -24.964234
v -10.171311 -7.070812 -24.962279
v -10.169882 -7.071337 -24.959534
v -10.169570 -7.071525 -24.956416
v -10.170423 -7.071346 -24.953400
v -10.172310 -7.070829 -24.950945
v -10.174945 -7.070052 -24.949426
v -10.177925 -7.069133 -24.949072
v -10.180799 -7.068213 -24.949939
v -10.183127 -7.067430 -24.951894
v -10.184556 -7.066905 -24.954639
v -10.184867 -7.066718 -24.957757
v -10.184015 -7.066896 -24.960773
v -10.182128 -7.067413 -24.963228
v -10.179493 -7.068190 -24.964747
vt 1.000000 0.500000
vt 1.000000 1.000000
vt 0.937500 1.000000
vt 0.937500 0.500000
vt 0.875000 1.000000
vt 0.875000 0.500000
vt 0.812500 1.000000
vt 0.812500 0.500000
vt 0.750000 1.000000
vt 0.750000 0.500000
vt 0.687500 1.000000
vt 0.687500 0.500000
vt 0.625000 1.000000
vt 0.625000 0.500000
vt 0.562500 1.000000
vt 0.562500 0.500000
vt 0.500000 1.000000
vt 0.500000 0.500000
vt 0.437500 1.000000
vt 0.437500 0.500000
vt 0.375000 1.000000
vt 0.375000 0.500000
vt 0.312500 1.000000
vt 0.312500 0.500000
vt 0.250000 1.000000
vt 0.250000 0.500000
vt 0.187500 1.000000
vt 0.187500 0.500000
vt 0.125000 1.000000
vt 0.125000 0.500000
vt 0.322867 0.425916
vt 0.250000 0.440410
vt 0.177133 0.425916
vt 0.115360 0.384641
vt 0.074084 0.322867
vt 0.059589 0.250000
vt 0.074084 0.177133
vt 0.115360 0.115359
vt 0.177133 0.074084
vt 0.250000 0.059589
vt 0.322867 0.074084
vt 0.384641 0.115359
vt 0.425916 0.177133
vt 0.440411 0.250000
vt 0.425916 0.322867
vt 0.384641 0.384641
vt 0.062500 1.000000
vt 0.062500 0.500000
vt 0.000000 1.000000
vt 0.000000 0.500000
vt 0.750000 0.455359
vt 0.828588 0.439727
vt 0.895211 0.395211
vt 0.939727 0.328588
vt 0.955359 0.250000
vt 0.939727 0.171412
vt 0.895211 0.104789
vt 0.828588 0.060273
vt 0.750000 0.044641
vt 0.671412 0.060273
vt 0.604789 0.104789
vt 0.560273 0.171412
vt 0.544641 0.250000
vt 0.560273 0.328588
vt 0.604789 0.395211
vt 0.671413 0.439727
vt 0.341844 0.471731
vt 0.250000 0.490000
vt 0.419706 0.419706
vt 0.471731 0.341844
vt 0.490000 0.250000
vt 0.471731 0.158156
vt 0.419706 0.080294
vt 0.341844 0.028269
vt 0.250000 0.010000
vt 0.158156 0.028269
vt 0.080294 0.080294
vt 0.028269 0.158156
vt 0.010000 0.250000
vt 0.028269 0.341844
vt 0.080294 0.419706
vt 0.158156 0.471731
vt 0.750000 0.490000
vt 0.841844 0.471731
vt 0.919706 0.419706
vt 0.971731 0.341844
vt 0.990000 0.250000
vt 0.971731 0.158156
vt 0.919706 0.080294
vt 0.841844 0.028269
vt 0.750000 0.010000
vt 0.658156 0.028269
vt 0.580294 0.080294
vt 0.528269 0.158156
vt 0.510000 0.250000
vt 0.528269 0.341844
vt 0.580294 0.419706
vt 0.658156 0.471731
vn 0.271568 -0.056803 -0.960741
vn 0.271568 -0.056803 -0.960741
vn 0.271568 -0.056803 -0.960741
vn 0.271568 -0.056803 -0.960741
vn 0.134003 -0.719618 -0.681317
vn 0.530031 0.551033 -0.644538
vn 0.745988 0.478492 -0.463192
vn 0.349926 -0.792158 -0.500037
vn 0.349926 -0.792158 -0.500037
vn 0.745988 0.478492 -0.463192
vn 0.878498 0.429799 -0.208600
vn 0.482430 -0.840852 -0.245415
vn 0.482430 -0.840852 -0.245415
vn 0.878498 0.429799 -0.208600
vn 0.907425 0.412411 0.080602
vn 0.511411 -0.858219 0.043801
vn 0.511411 -0.858219 0.043801
vn 0.907425 0.412411 0.080602
vn 0.828361 0.428932 0.360327
vn 0.432301 -0.841702 0.323501
vn 0.432301 -0.841702 0.323501
vn 0.828361 0.428932 0.360327
vn 0.653307 0.476905 0.588006
vn 0.257209 -0.793727 0.551218
vn 0.257209 -0.793727 0.551218
vn 0.653307 0.476905 0.588006
vn 0.408921 0.549029 0.728938
vn 0.012901 -0.721645 0.692143
vn 0.012901 -0.721645 0.692143
vn 0.408921 0.549029 0.728938
vn 0.132503 0.634215 0.761718
vn -0.263511 -0.636426 0.724930
vn -0.263511 -0.636426 0.724930
vn 0.132503 0.634215 0.761718
vn -0.134003 0.719618 0.681317
vn -0.530031 -0.551033 0.644538
vn -0.530031 -0.551033 0.644538
vn -0.134003 0.719618 0.681317
vn -0.349926 0.792158 0.500037
vn -0.745988 -0.478492 0.463192
vn -0.745988 -0.478492 0.463192
vn -0.349926 0.792158 0.500037
vn -0.482430 0.840852 0.245415
vn -0.878498 -0.429799 0.208600
vn -0.878498 -0.429799 0.208600
vn -0.482430 0.840852 0.245415
vn -0.511411 0.858219 -0.043801
vn -0.907425 -0.412411 -0.080602
vn -0.907425 -0.412411 -0.080602
vn -0.511411 0.858219 -0.043801
vn -0.432301 0.841702 -0.323501
vn -0.828361 -0.428932 -0.360327
vn -0.828361 -0.428932 -0.360327
vn -0.432301 0.841702 -0.323501
vn -0.257209 0.793727 -0.551218
vn -0.653307 -0.476905 -0.588006
vn 0.297506 0.954321 0.027601
vn 0.297415 0.954349 0.027601
vn 0.297415 0.954349 0.027601
vn 0.297415 0.954349 0.027601
vn 0.297415 0.954349 0.027601
vn 0.297415 0.954349 0.027601
vn 0.297415 0.954349 0.027601
vn 0.297415 0.954349 0.027601
vn 0.297415 0.954349 0.027601
vn 0.297415 0.954349 0.027601
vn 0.297506 0.954321 0.027601
vn 0.297415 0.954349 0.027601
vn 0.297415 0.954349 0.027601
vn 0.297415 0.954349 0.027601
vn 0.297415 0.954349 0.027601
vn 0.297415 0.954349 0.027601
vn -0.653307 -0.476905 -0.588006
vn -0.257209 0.793727 -0.551218
vn -0.012901 0.721645 -0.692143
vn -0.408921 -0.549029 -0.728938
vn -0.408921 -0.549029 -0.728938
vn -0.012901 0.721645 -0.692143
vn 0.263511 0.636426 -0.724930
vn -0.132503 -0.634215 -0.761718
vn -0.297415 -0.954349 -0.027601
vn -0.297506 -0.954321 -0.027601
vn -0.297415 -0.954349 -0.027601
vn -0.297415 -0.954349 -0.027601
vn -0.297415 -0.954349 -0.027601
vn -0.297415 -0.954349 -0.027601
vn -0.297415 -0.954349 -0.027601
vn -0.297415 -0.954349 -0.027601
vn -0.297506 -0.954321 -0.027601
vn -0.297506 -0.954321 -0.027601
vn -0.297415 -0.954349 -0.027601
vn -0.297415 -0.954349 -0.027601
vn -0.297506 -0.954321 -0.027601
vn -0.297415 -0.954349 -0.027601
vn -0.297506 -0.954321 -0.027601
vn -0.297415 -0.954349 -0.027601
vn 0.297415 0.954349 0.027601
vn 0.297506 0.954321 0.027601
vn 0.530031 0.551033 -0.644538
vn 0.263511 0.636426 -0.724930
vn 0.297506 0.954321 0.027601
vn 0.297415 0.954349 0.027601
vn 0.745988 0.478492 -0.463192
vn 0.530031 0.551033 -0.644538
vn 0.297415 0.954349 0.027601
vn 0.297415 0.954349 0.027601
vn 0.878498 0.429799 -0.208600
vn 0.745988 0.478492 -0.463192
vn 0.297415 0.954349 0.027601
vn 0.297415 0.954349 0.027601
vn 0.907425 0.412411 0.080602
vn 0.878498 0.429799 -0.208600
vn 0.297415 0.954349 0.027601
vn 0.297415 0.954349 0.027601
vn 0.828361 0.428932 0.360327
vn 0.907425 0.412411 0.080602
vn 0.297415 0.954349 0.027601
vn 0.297415 0.954349 0.027601
vn 0.653307 0.476905 0.588006
vn 0.828361 0.428932 0.360327
vn 0.297415 0.954349 0.027601
vn 0.297506 0.954321 0.027601
vn 0.408921 0.549029 0.728938
vn 0.653307 0.476905 0.588006
vn 0.297506 0.954321 0.027601
vn 0.297415 0.954349 0.027601
vn 0.132503 0.634215 0.761718
vn 0.408921 0.549029 0.728938
vn 0.297415 0.954349 0.027601
vn 0.297415 0.954349 0.027601
vn -0.134003 0.719618 0.681317
vn 0.132503 0.634215 0.761718
vn 0.297415 0.954349 0.027601
vn 0.297415 0.954349 0.027601
vn -0.349926 0.792158 0.500037
vn -0.134003 0.719618 0.681317
vn 0.297415 0.954349 0.027601
vn 0.297415 0.954349 0.027601
vn -0.482430 0.840852 0.245415
vn -0.349926 0.792158 0.500037
vn 0.297415 0.954349 0.027601
vn 0.297415 0.954349 0.027601
vn -0.511411 0.858219 -0.043801
vn -0.482430 0.840852 0.245415
vn 0.297415 0.954349 0.027601
vn 0.297415 0.954349 0.027601
vn -0.432301 0.841702 -0.323501
vn -0.511411 0.858219 -0.043801
vn 0.297415 0.954349 0.027601
vn 0.297415 0.954349 0.027601
vn -0.257209 0.793727 -0.551218
vn -0.432301 0.841702 -0.323501
vn 0.297415 0.954349 0.027601
vn 0.297415 0.954349 0.027601
vn -0.012901 0.721645 -0.692143
vn -0.257209 0.793727 -0.551218
vn 0.297415 0.954349 0.027601
vn 0.297415 0.954349 0.027601
vn 0.263511 0.636426 -0.724930
vn -0.012901 0.721645 -0.692143
vn -0.297506 -0.954321 -0.027601
vn -0.297415 -0.954349 -0.027601
vn -0.132503 -0.634215 -0.761718
vn 0.134003 -0.719618 -0.681317
vn -0.297415 -0.954349 -0.027601
vn -0.297506 -0.954321 -0.027601
vn 0.134003 -0.719618 -0.681317
vn 0.349926 -0.792158 -0.500037
vn -0.297415 -0.954349 -0.027601
vn -0.297415 -0.954349 -0.027601
vn 0.349926 -0.792158 -0.500037
vn 0.482430 -0.840852 -0.245415
vn -0.297415 -0.954349 -0.027601
vn -0.297415 -0.954349 -0.027601
vn 0.482430 -0.840852 -0.245415
vn 0.511411 -0.858219 0.043801
vn -0.297415 -0.954349 -0.027601
vn -0.297415 -0.954349 -0.027601
vn 0.511411 -0.858219 0.043801
vn 0.432301 -0.841702 0.323501
vn -0.297415 -0.954349 -0.027601
vn -0.297415 -0.954349 -0.027601
vn 0.432301 -0.841702 0.323501
vn 0.257209 -0.793727 0.551218
vn -0.297415 -0.954349 -0.027601
vn -0.297415 -0.954349 -0.027601
vn 0.257209 -0.793727 0.551218
vn 0.012901 -0.721645 0.692143
vn -0.297506 -0.954321 -0.027601
vn -0.297415 -0.954349 -0.027601
vn 0.012901 -0.721645 0.692143
vn -0.263511 -0.636426 0.724930
vn -0.297506 -0.954321 -0.027601
vn -0.297506 -0.954321 -0.027601
vn -0.263511 -0.636426 0.724930
vn -0.530031 -0.551033 0.644538
vn -0.297415 -0.954349 -0.027601
vn -0.297506 -0.954321 -0.027601
vn -0.530031 -0.551033 0.644538
vn -0.745988 -0.478492 0.463192
vn -0.297415 -0.954349 -0.027601
vn -0.297415 -0.954349 -0.027601
vn -0.745988 -0.478492 0.463192
vn -0.878498 -0.429799 0.208600
vn -0.297506 -0.954321 -0.027601
vn -0.297415 -0.954349 -0.027601
vn -0.878498 -0.429799 0.208600
vn -0.907425 -0.412411 -0.080602
vn -0.297415 -0.954349 -0.027601
vn -0.297506 -0.954321 -0.027601
vn -0.907425 -0.412411 -0.080602
vn -0.828361 -0.428932 -0.360327
vn -0.297506 -0.954321 -0.027601
vn -0.297415 -0.954349 -0.027601
vn -0.828361 -0.428932 -0.360327
vn -0.653307 -0.476905 -0.588006
vn -0.297415 -0.954349 -0.027601
vn -0.297506 -0.954321 -0.027601
vn -0.653307 -0.476905 -0.588006
vn -0.408921 -0.549029 -0.728938
vn -0.297415 -0.954349 -0.027601
vn -0.297415 -0.954349 -0.027601
vn -0.408921 -0.549029 -0.728938
vn -0.132503 -0.634215 -0.761718
s off
g lab_equipment:glass_rod_Cylinder_005_glass_001
usemtl lambert24SG
f 49/1/1 34/2/2 33/3/3 50/4/4
f 50/4/5 33/3/6 35/5/7 51/6/8
f 51/6/9 35/5/10 36/7/11 52/8/12
f 52/8/13 36/7/14 37/9/15 53/10/16
f 53/10/17 37/9/18 38/11/19 54/12/20
f 54/12/21 38/11/22 39/13/23 55/14/24
f 55/14/25 39/13/26 40/15/27 56/16/28
f 56/16/29 40/15/30 41/17/31 57/18/32
f 57/18/33 41/17/34 42/19/35 58/20/36
f 58/20/37 42/19/38 43/21/39 59/22/40
f 59/22/41 43/21/42 44/23/43 60/24/44
f 60/24/45 44/23/46 45/25/47 61/26/48
f 61/26/49 45/25/50 46/27/51 62/28/52
f 62/28/53 46/27/54 47/29/55 63/30/56
f 4/31/57 2/32/58 32/33/59 30/34/60 28/35/61 26/36/62 24/37/63 22/38/64 20/39/65 18/40/66 16/41/67 14/42/68 12/43/69 10/44/70 8/45/71 6/46/72
f 63/30/73 47/29/74 48/47/75 64/48/76
f 64/48/77 48/47/78 34/49/79 49/50/80
f 1/51/81 3/52/82 5/53/83 7/54/84 9/55/85 11/56/86 13/57/87 15/58/88 17/59/89 19/60/90 21/61/91 23/62/92 25/63/93 27/64/94 29/65/95 31/66/96
f 2/32/97 4/31/98 33/67/99 34/68/100
f 4/31/101 6/46/102 35/69/103 33/67/104
f 6/46/105 8/45/106 36/70/107 35/69/108
f 8/45/109 10/44/110 37/71/111 36/70/112
f 10/44/113 12/43/114 38/72/115 37/71/116
f 12/43/117 14/42/118 39/73/119 38/72/120
f 14/42/121 16/41/122 40/74/123 39/73/124
f 16/41/125 18/40/126 41/75/127 40/74/128
f 18/40/129 20/39/130 42/76/131 41/75/132
f 20/39/133 22/38/134 43/77/135 42/76/136
f 22/38/137 24/37/138 44/78/139 43/77/140
f 24/37/141 26/36/142 45/79/143 44/78/144
f 26/36/145 28/35/146 46/80/147 45/79/148
f 28/35/149 30/34/150 47/81/151 46/80/152
f 30/34/153 32/33/154 48/82/155 47/81/156
f 32/33/157 2/32/158 34/68/159 48/82/160
f 3/52/161 1/51/162 49/83/163 50/84/164
f 5/53/165 3/52/166 50/84/167 51/85/168
f 7/54/169 5/53/170 51/85/171 52/86/172
f 9/55/173 7/54/174 52/86/175 53/87/176
f 11/56/177 9/55/178 53/87/179 54/88/180
f 13/57/181 11/56/182 54/88/183 55/89/184
f 15/58/185 13/57/186 55/89/187 56/90/188
f 17/59/189 15/58/190 56/90/191 57/91/192
f 19/60/193 17/59/194 57/91/195 58/92/196
f 21/61/197 19/60/198 58/92/199 59/93/200
f 23/62/201 21/61/202 59/93/203 60/94/204
f 25/63/205 23/62/206 60/94/207 61/95/208
f 27/64/209 25/63/210 61/95/211 62/96/212
f 29/65/213 27/64/214 62/96/215 63/97/216
f 31/66/217 29/65/218 63/97/219 64/98/220
f 1/51/221 31/66/222 64/98/223 49/83/224
